<svg xmlns="http://www.w3.org/2000/svg" viewBox="0 0 1200 900" role="img" aria-labelledby="t">
<title id="t">Tote bag premium personnalisé KREONI</title>
<defs>
  <radialGradient id="bg" cx="50%" cy="38%" r="75%"><stop offset="0" stop-color="#faf7f0"/><stop offset=".7" stop-color="#e9dfcf"/><stop offset="1" stop-color="#d9c9af"/></radialGradient>
  <linearGradient id="canvas" x1="0" y1="0" x2="1" y2="1"><stop stop-color="#f0e1c6"/><stop offset=".45" stop-color="#dbc39d"/><stop offset="1" stop-color="#c5a877"/></linearGradient>
  <linearGradient id="edge" x1="0" x2="1"><stop stop-color="#b99762"/><stop offset=".5" stop-color="#dec9a4"/><stop offset="1" stop-color="#ad8d5a"/></linearGradient>
  <linearGradient id="gold" x1="0" y1="0" x2="1" y2="1"><stop stop-color="#f1d17b"/><stop offset=".5" stop-color="#d4a43c"/><stop offset="1" stop-color="#996615"/></linearGradient>
  <filter id="shadow" x="-30%" y="-30%" width="160%" height="180%"><feDropShadow dx="0" dy="30" stdDeviation="25" flood-color="#000" flood-opacity=".23"/></filter>
  <pattern id="weave" width="10" height="10" patternUnits="userSpaceOnUse"><path d="M0 5h10M5 0v10" stroke="#745e3c" stroke-width=".7" opacity=".08"/></pattern>
</defs>
<rect width="1200" height="900" rx="44" fill="url(#bg)"/>
<ellipse cx="604" cy="792" rx="300" ry="48" fill="#5b452b" opacity=".12"/>
<g filter="url(#shadow)">
  <path d="M360 278h480l62 467H298z" fill="url(#canvas)" stroke="url(#edge)" stroke-width="8"/>
  <path d="M436 286c0-178 328-178 328 0" fill="none" stroke="#b99968" stroke-width="34" stroke-linecap="round"/>
  <path d="M456 286c0-146 288-146 288 0" fill="none" stroke="#e1c89d" stroke-width="11" opacity=".8"/>
  <path d="M360 278h480" stroke="#9d7b4f" stroke-width="8"/>
  <path d="M332 702c164 20 372 20 536 0" fill="none" stroke="#b18e5b" stroke-width="4" opacity=".65"/>
  <path d="M303 315h594v427H303z" fill="url(#weave)"/>
  <g transform="translate(450 390)">
    <path d="M70 0h63v89l73-89h77l-80 93 86 112h-78l-47-66-31 33v33H70z" fill="#141414"/>
    <path d="M52 173C115 62 190 21 275 5c-50 39-101 93-145 175-22 39-43 67-68 84 13-27 9-58-10-91z" fill="url(#gold)"/>
    <text x="173" y="300" text-anchor="middle" font-family="Arial,sans-serif" font-size="50" font-weight="800" letter-spacing="7" fill="#161616">KREONI</text>
    <text x="173" y="338" text-anchor="middle" font-family="Arial,sans-serif" font-size="18" letter-spacing="5" fill="#4b4032">CREATE • PRINT • PERSONALIZE</text>
  </g>
</g>
<text x="54" y="70" font-family="Arial,sans-serif" font-size="22" letter-spacing="5" fill="#8b601d">KREONI / TOTE BAG</text>
</svg>